<mxfile host="Electron" modified="2023-10-11T06:28:35.272Z" agent="Mozilla/5.0 (X11; Linux x86_64) AppleWebKit/537.36 (KHTML, like Gecko) draw.io/21.6.1 Chrome/112.0.5615.204 Electron/24.6.1 Safari/537.36" etag="f2oj5c9FNJc8FCFEbmgQ" version="21.6.1" type="device">
  <diagram name="Page-1" id="lsXUwLORJHGJ75xkkXjh">
    <mxGraphModel dx="1364" dy="1943" grid="1" gridSize="10" guides="1" tooltips="1" connect="1" arrows="1" fold="1" page="1" pageScale="1" pageWidth="850" pageHeight="1100" math="0" shadow="0">
      <root>
        <mxCell id="0" />
        <mxCell id="1" parent="0" />
        <mxCell id="mOARfuRmaJPeJrqKV3B3-1" value="" style="rounded=0;whiteSpace=wrap;html=1;" parent="1" vertex="1">
          <mxGeometry x="365" y="-20" width="130" height="180" as="geometry" />
        </mxCell>
        <mxCell id="mOARfuRmaJPeJrqKV3B3-3" value="CPU" style="rounded=0;whiteSpace=wrap;html=1;" parent="1" vertex="1">
          <mxGeometry x="365" y="-20" width="130" height="40" as="geometry" />
        </mxCell>
        <mxCell id="mOARfuRmaJPeJrqKV3B3-4" value="CORES&lt;br&gt;FREQUENCY&lt;br&gt;REGISTER" style="rounded=0;whiteSpace=wrap;html=1;" parent="1" vertex="1">
          <mxGeometry x="365" y="20" width="130" height="70" as="geometry" />
        </mxCell>
        <mxCell id="mOARfuRmaJPeJrqKV3B3-5" value="active()&lt;br&gt;read()&lt;br&gt;execute() ?&lt;br&gt;program()" style="rounded=0;whiteSpace=wrap;html=1;" parent="1" vertex="1">
          <mxGeometry x="365" y="90" width="130" height="70" as="geometry" />
        </mxCell>
        <mxCell id="mOARfuRmaJPeJrqKV3B3-7" value="" style="rounded=0;whiteSpace=wrap;html=1;" parent="1" vertex="1">
          <mxGeometry x="365" y="-310" width="130" height="180" as="geometry" />
        </mxCell>
        <mxCell id="mOARfuRmaJPeJrqKV3B3-8" value="Component" style="rounded=0;whiteSpace=wrap;html=1;" parent="1" vertex="1">
          <mxGeometry x="365" y="-310" width="130" height="40" as="geometry" />
        </mxCell>
        <mxCell id="mOARfuRmaJPeJrqKV3B3-9" value="LABEL" style="rounded=0;whiteSpace=wrap;html=1;" parent="1" vertex="1">
          <mxGeometry x="365" y="-270" width="130" height="70" as="geometry" />
        </mxCell>
        <mxCell id="mOARfuRmaJPeJrqKV3B3-10" value="" style="rounded=0;whiteSpace=wrap;html=1;" parent="1" vertex="1">
          <mxGeometry x="365" y="-200" width="130" height="70" as="geometry" />
        </mxCell>
        <mxCell id="mOARfuRmaJPeJrqKV3B3-11" value="" style="triangle;whiteSpace=wrap;html=1;rotation=-90;" parent="1" vertex="1">
          <mxGeometry x="420" y="-130" width="20" height="20" as="geometry" />
        </mxCell>
        <mxCell id="mOARfuRmaJPeJrqKV3B3-13" value="" style="rounded=0;whiteSpace=wrap;html=1;" parent="1" vertex="1">
          <mxGeometry x="450" y="280" width="130" height="180" as="geometry" />
        </mxCell>
        <mxCell id="mOARfuRmaJPeJrqKV3B3-14" value="Bus" style="rounded=0;whiteSpace=wrap;html=1;" parent="1" vertex="1">
          <mxGeometry x="450" y="280" width="130" height="40" as="geometry" />
        </mxCell>
        <mxCell id="mOARfuRmaJPeJrqKV3B3-15" value="WIDTH&lt;br&gt;COUNTER" style="rounded=0;whiteSpace=wrap;html=1;" parent="1" vertex="1">
          <mxGeometry x="450" y="320" width="130" height="70" as="geometry" />
        </mxCell>
        <mxCell id="mOARfuRmaJPeJrqKV3B3-16" value="" style="rounded=0;whiteSpace=wrap;html=1;" parent="1" vertex="1">
          <mxGeometry x="450" y="390" width="130" height="70" as="geometry" />
        </mxCell>
        <mxCell id="mOARfuRmaJPeJrqKV3B3-17" value="" style="rounded=0;whiteSpace=wrap;html=1;" parent="1" vertex="1">
          <mxGeometry x="710" y="280" width="130" height="180" as="geometry" />
        </mxCell>
        <mxCell id="mOARfuRmaJPeJrqKV3B3-18" value="Memory" style="rounded=0;whiteSpace=wrap;html=1;" parent="1" vertex="1">
          <mxGeometry x="710" y="280" width="130" height="40" as="geometry" />
        </mxCell>
        <mxCell id="mOARfuRmaJPeJrqKV3B3-19" value="SIZE&lt;br&gt;ACCESS TIME&lt;br&gt;" style="rounded=0;whiteSpace=wrap;html=1;" parent="1" vertex="1">
          <mxGeometry x="710" y="320" width="130" height="70" as="geometry" />
        </mxCell>
        <mxCell id="mOARfuRmaJPeJrqKV3B3-20" value="store()" style="rounded=0;whiteSpace=wrap;html=1;" parent="1" vertex="1">
          <mxGeometry x="710" y="390" width="130" height="70" as="geometry" />
        </mxCell>
        <mxCell id="mOARfuRmaJPeJrqKV3B3-21" value="" style="rounded=0;whiteSpace=wrap;html=1;" parent="1" vertex="1">
          <mxGeometry x="580" y="-20" width="130" height="180" as="geometry" />
        </mxCell>
        <mxCell id="mOARfuRmaJPeJrqKV3B3-22" value="BaseData" style="rounded=0;whiteSpace=wrap;html=1;" parent="1" vertex="1">
          <mxGeometry x="580" y="-20" width="130" height="40" as="geometry" />
        </mxCell>
        <mxCell id="mOARfuRmaJPeJrqKV3B3-23" value="&lt;br&gt;SOURCE.LABEL" style="rounded=0;whiteSpace=wrap;html=1;" parent="1" vertex="1">
          <mxGeometry x="580" y="20" width="130" height="70" as="geometry" />
        </mxCell>
        <mxCell id="mOARfuRmaJPeJrqKV3B3-24" value="read()" style="rounded=0;whiteSpace=wrap;html=1;" parent="1" vertex="1">
          <mxGeometry x="580" y="90" width="130" height="70" as="geometry" />
        </mxCell>
        <mxCell id="mOARfuRmaJPeJrqKV3B3-25" value="" style="triangle;whiteSpace=wrap;html=1;rotation=-90;" parent="1" vertex="1">
          <mxGeometry x="635" y="160" width="20" height="20" as="geometry" />
        </mxCell>
        <mxCell id="mOARfuRmaJPeJrqKV3B3-27" style="edgeStyle=orthogonalEdgeStyle;rounded=0;orthogonalLoop=1;jettySize=auto;html=1;entryX=0;entryY=0.5;entryDx=0;entryDy=0;" parent="1" source="mOARfuRmaJPeJrqKV3B3-26" target="mOARfuRmaJPeJrqKV3B3-25" edge="1">
          <mxGeometry relative="1" as="geometry" />
        </mxCell>
        <mxCell id="mOARfuRmaJPeJrqKV3B3-26" value="" style="shape=waypoint;sketch=0;fillStyle=solid;size=6;pointerEvents=1;points=[];fillColor=none;resizable=0;rotatable=0;perimeter=centerPerimeter;snapToPoint=1;" parent="1" vertex="1">
          <mxGeometry x="635" y="220" width="20" height="20" as="geometry" />
        </mxCell>
        <mxCell id="mOARfuRmaJPeJrqKV3B3-28" value="" style="endArrow=none;html=1;rounded=0;edgeStyle=orthogonalEdgeStyle;exitX=0.5;exitY=0;exitDx=0;exitDy=0;" parent="1" source="mOARfuRmaJPeJrqKV3B3-14" target="mOARfuRmaJPeJrqKV3B3-26" edge="1">
          <mxGeometry width="50" height="50" relative="1" as="geometry">
            <mxPoint x="505" y="260" as="sourcePoint" />
            <mxPoint x="555" y="210" as="targetPoint" />
            <Array as="points">
              <mxPoint x="515" y="230" />
            </Array>
          </mxGeometry>
        </mxCell>
        <mxCell id="mOARfuRmaJPeJrqKV3B3-29" value="" style="endArrow=none;html=1;rounded=0;edgeStyle=orthogonalEdgeStyle;exitX=0.5;exitY=0;exitDx=0;exitDy=0;entryX=1.097;entryY=0.605;entryDx=0;entryDy=0;entryPerimeter=0;" parent="1" source="mOARfuRmaJPeJrqKV3B3-18" target="mOARfuRmaJPeJrqKV3B3-26" edge="1">
          <mxGeometry width="50" height="50" relative="1" as="geometry">
            <mxPoint x="525" y="290" as="sourcePoint" />
            <mxPoint x="655" y="240" as="targetPoint" />
            <Array as="points">
              <mxPoint x="775" y="230" />
            </Array>
          </mxGeometry>
        </mxCell>
        <mxCell id="mOARfuRmaJPeJrqKV3B3-31" style="edgeStyle=orthogonalEdgeStyle;rounded=0;orthogonalLoop=1;jettySize=auto;html=1;entryX=0;entryY=0.5;entryDx=0;entryDy=0;" parent="1" source="mOARfuRmaJPeJrqKV3B3-30" target="mOARfuRmaJPeJrqKV3B3-11" edge="1">
          <mxGeometry relative="1" as="geometry" />
        </mxCell>
        <mxCell id="mOARfuRmaJPeJrqKV3B3-30" value="" style="shape=waypoint;sketch=0;fillStyle=solid;size=6;pointerEvents=1;points=[];fillColor=none;resizable=0;rotatable=0;perimeter=centerPerimeter;snapToPoint=1;" parent="1" vertex="1">
          <mxGeometry x="420" y="-70" width="20" height="20" as="geometry" />
        </mxCell>
        <mxCell id="mOARfuRmaJPeJrqKV3B3-33" value="" style="endArrow=none;html=1;rounded=0;edgeStyle=orthogonalEdgeStyle;exitX=0.971;exitY=0.657;exitDx=0;exitDy=0;exitPerimeter=0;entryX=0.5;entryY=0;entryDx=0;entryDy=0;" parent="1" source="mOARfuRmaJPeJrqKV3B3-30" target="mOARfuRmaJPeJrqKV3B3-22" edge="1">
          <mxGeometry width="50" height="50" relative="1" as="geometry">
            <mxPoint x="645" y="290" as="sourcePoint" />
            <mxPoint x="775" y="240" as="targetPoint" />
            <Array as="points">
              <mxPoint x="645" y="-60" />
            </Array>
          </mxGeometry>
        </mxCell>
        <mxCell id="mOARfuRmaJPeJrqKV3B3-34" value="" style="endArrow=none;html=1;rounded=0;edgeStyle=orthogonalEdgeStyle;exitX=0.5;exitY=0;exitDx=0;exitDy=0;entryX=0.257;entryY=1;entryDx=0;entryDy=0;entryPerimeter=0;" parent="1" source="mOARfuRmaJPeJrqKV3B3-3" target="mOARfuRmaJPeJrqKV3B3-30" edge="1">
          <mxGeometry width="50" height="50" relative="1" as="geometry">
            <mxPoint x="420" y="270" as="sourcePoint" />
            <mxPoint x="550" y="220" as="targetPoint" />
            <Array as="points">
              <mxPoint x="430" y="-20" />
            </Array>
          </mxGeometry>
        </mxCell>
        <mxCell id="mOARfuRmaJPeJrqKV3B3-35" value="" style="rounded=0;whiteSpace=wrap;html=1;" parent="1" vertex="1">
          <mxGeometry x="150" y="-20" width="130" height="180" as="geometry" />
        </mxCell>
        <mxCell id="mOARfuRmaJPeJrqKV3B3-36" value="Display" style="rounded=0;whiteSpace=wrap;html=1;" parent="1" vertex="1">
          <mxGeometry x="150" y="-20" width="130" height="40" as="geometry" />
        </mxCell>
        <mxCell id="mOARfuRmaJPeJrqKV3B3-37" value="SOURCE.LABEL&lt;br&gt;REFRESH&lt;br&gt;" style="rounded=0;whiteSpace=wrap;html=1;" parent="1" vertex="1">
          <mxGeometry x="150" y="20" width="130" height="70" as="geometry" />
        </mxCell>
        <mxCell id="mOARfuRmaJPeJrqKV3B3-38" value="" style="rounded=0;whiteSpace=wrap;html=1;" parent="1" vertex="1">
          <mxGeometry x="150" y="90" width="130" height="70" as="geometry" />
        </mxCell>
        <mxCell id="mOARfuRmaJPeJrqKV3B3-39" value="" style="endArrow=none;html=1;rounded=0;edgeStyle=orthogonalEdgeStyle;exitX=0.5;exitY=0;exitDx=0;exitDy=0;entryX=-0.06;entryY=0.57;entryDx=0;entryDy=0;entryPerimeter=0;" parent="1" source="mOARfuRmaJPeJrqKV3B3-36" target="mOARfuRmaJPeJrqKV3B3-30" edge="1">
          <mxGeometry width="50" height="50" relative="1" as="geometry">
            <mxPoint x="-30" y="-110" as="sourcePoint" />
            <mxPoint x="305" y="-70" as="targetPoint" />
            <Array as="points">
              <mxPoint x="215" y="-60" />
            </Array>
          </mxGeometry>
        </mxCell>
        <mxCell id="mOARfuRmaJPeJrqKV3B3-40" value="" style="rounded=0;whiteSpace=wrap;html=1;" parent="1" vertex="1">
          <mxGeometry x="365" y="-570" width="130" height="180" as="geometry" />
        </mxCell>
        <mxCell id="mOARfuRmaJPeJrqKV3B3-41" value="Platform" style="rounded=0;whiteSpace=wrap;html=1;" parent="1" vertex="1">
          <mxGeometry x="365" y="-570" width="130" height="40" as="geometry" />
        </mxCell>
        <mxCell id="mOARfuRmaJPeJrqKV3B3-42" value="" style="rounded=0;whiteSpace=wrap;html=1;" parent="1" vertex="1">
          <mxGeometry x="365" y="-530" width="130" height="70" as="geometry" />
        </mxCell>
        <mxCell id="mOARfuRmaJPeJrqKV3B3-43" value="simulate()" style="rounded=0;whiteSpace=wrap;html=1;" parent="1" vertex="1">
          <mxGeometry x="365" y="-460" width="130" height="70" as="geometry" />
        </mxCell>
        <mxCell id="mOARfuRmaJPeJrqKV3B3-45" value="" style="rhombus;whiteSpace=wrap;html=1;fillColor=#000000;" parent="1" vertex="1">
          <mxGeometry x="420" y="-390" width="20" height="20" as="geometry" />
        </mxCell>
        <mxCell id="mOARfuRmaJPeJrqKV3B3-47" value="" style="endArrow=none;html=1;rounded=0;exitX=0.5;exitY=0;exitDx=0;exitDy=0;entryX=0.5;entryY=1;entryDx=0;entryDy=0;" parent="1" source="mOARfuRmaJPeJrqKV3B3-8" target="mOARfuRmaJPeJrqKV3B3-45" edge="1">
          <mxGeometry width="50" height="50" relative="1" as="geometry">
            <mxPoint x="380" y="-320" as="sourcePoint" />
            <mxPoint x="430" y="-370" as="targetPoint" />
          </mxGeometry>
        </mxCell>
        <mxCell id="Hz2hmHnak6h8bp6EijvX-3" value="Criada por mim" style="text;html=1;align=center;verticalAlign=middle;resizable=0;points=[];autosize=1;strokeColor=none;fillColor=none;" vertex="1" parent="1">
          <mxGeometry x="720" y="-15" width="110" height="30" as="geometry" />
        </mxCell>
      </root>
    </mxGraphModel>
  </diagram>
</mxfile>
